<svg id="loma0" xmlns="http://www.w3.org/2000/svg" viewBox="0 0 2026.27 421.14"><defs><style>.cls-1{fill:#aec965;}.cls-2{fill:#91bf3a;}.cls-3{fill:#669f19;}</style></defs><title>lomas</title><path class="cls-1" d="M-52.53,929.42C5,957.42,140,955.67,268,953.92s382-31.5,584-75.26,316-75.26,460-110.26,294-47.25,416-45.5,181,11,235,21v301H-54Z" transform="translate(63.28 -722.75)"/><path class="cls-2" d="M1960,906.93c-75.06,15.32-162,28-292,28-126.57,0-199.41-.93-407-30-201.25-28.18-247.9-38-399.9-72.93-142-32.65-262.27-52.07-431.1-52.07S111,786.27-21.52,811.5v243.44h1982Z" transform="translate(63.28 -722.75)"/><path class="cls-3" d="M-54.28,1137.88l2016.2,6-6-165c-498-72-1446.14-84-2019.2-6Z" transform="translate(63.28 -722.75)"/></svg>