<svg id="nubes" xmlns="http://www.w3.org/2000/svg" viewBox="0 0 1946.61 721.47"><defs><style>.cls-1{fill:#fff;}</style></defs><title>nubes</title><path class="cls-1" d="M1204.83,644.47c0,17.67-16.68,32-37.26,32-12.7,0-23.93-5.47-30.66-13.81-11.17,13.6-29.6,22.48-50.46,22.48-16.32,0-31.16-5.44-42.2-14.32a61.08,61.08,0,0,1-37.38,12.32c-20.53,0-38.46-9.5-48.18-23.66-7.62,7.55-18.85,12.32-31.4,12.32a45,45,0,0,1-29.64-10.68C886.2,676,866.54,685.8,844.22,685.8c-35.38,0-64-24.62-64-55,0-28.26,24.82-51.54,56.77-54.65-0.07-.78-0.1-1.56-0.1-2.35,0-16.83,15.8-30.5,35.37-30.66a49,49,0,0,1-2-8.92c-1.53-11.83,1.27-24,8.41-35.92,7.43-12.34,21.17-26.94,37.86-31.08-8.18-11.5-9.32-27.08-.43-38.36a39.21,39.21,0,0,1,40.9-13c0-.42-0.07-0.87-0.07-1.31,0.26-5.57,5.47-12.17,12.12-13.35A17.32,17.32,0,0,1,983.16,405c6.09-22.41,37.92-34.52,64.9-28.34,30.79,7.08,54.8,36.54,41.9,61.44a25.17,25.17,0,0,1,20.36,10.63,22.74,22.74,0,0,1,3.33,7.42c2.08,8.5,1.07,18.91-8.24,24.14a34.83,34.83,0,0,1-6.74,2.77c11.27,10.38,16.19,27.47,8.92,39.73a43.06,43.06,0,0,1-3.76,5.36c24.5,4.16,42.78,20.47,42.78,40a31.79,31.79,0,0,1-3.3,14c12.34,3.87,21.16,14.05,21.16,26a22.82,22.82,0,0,1-.43,4.48q1.75-.15,3.53-0.15C1188.15,612.47,1204.83,626.8,1204.83,644.47Z" transform="translate(0)"/><path class="cls-1" d="M1817.81,624.26c0,10.52-11.81,19-26.36,19-9,0-16.9-3.23-21.65-8.18-6,8-17.67,13.35-31.07,13.35a43.68,43.68,0,0,1-23.16-6.26c-6.56,6.75-16.54,11.08-27.71,11.08-12.54,0-23.59-5.46-30-13.69a32.59,32.59,0,0,1-35.84-.08,40.23,40.23,0,0,1-15.59,3,39.78,39.78,0,0,1-16.73-3.46c-3.36,9.76-13.65,16.86-25.83,16.86-11.88,0-22-6.76-25.56-16.16a55.06,55.06,0,0,1-14.56,3.22c-3.32,5.32-9.76,8.93-17.13,8.93a21,21,0,0,1-12.93-4.3c-6.45,6.24-16.73,10.27-28.32,10.27-11.2,0-21.18-3.77-27.66-9.66-6.42,7.41-16.81,12.22-28.54,12.22-14.28,0-26.59-7.14-32.15-17.42-4.1,8-13.54,13.59-24.53,13.59-8.74,0-16.49-3.52-21.37-9A29.33,29.33,0,1,1,1317.33,592a44.7,44.7,0,0,1,54.24-55.88,71.46,71.46,0,0,1,51-51.38c-0.06-.66-0.08-1.33-0.08-2a28.25,28.25,0,0,1,41.76-24.81c6.67-21.29,22.17-40.47,43.83-45.82-7.32-4.52-13.17-16.4-12.07-25.48,1.31-10.71,9.62-18.37,19.71-22.88a20.7,20.7,0,1,1,30.8-27.65c-0.09-1-.14-2.11-0.14-3.17a41.2,41.2,0,0,1,82.39,0,40.48,40.48,0,0,1-1.64,11.51,59.91,59.91,0,0,1,39.54,86,23.93,23.93,0,0,1,18.13,37.5c1.06,0,2.13-.08,3.2-0.08a64.57,64.57,0,0,1,64.56,64.56c0,1.67-.06,3.33-0.19,5a41.74,41.74,0,0,1,15.29-2.88,42.16,42.16,0,0,1,30.45,71.34C1809.44,608,1817.81,615.41,1817.81,624.26Z" transform="translate(0)"/><path class="cls-1" d="M709.61,649.49c0,29-30.92,52.48-69.06,52.48a85.81,85.81,0,0,1-34.7-7.11C593.18,706.53,574,714,552.55,714c-18.24,0-34.82-5.38-47.16-14.15C492.82,709.77,475.14,716,455.55,716c-22.7,0-42.84-8.33-55.43-21.18A58.43,58.43,0,0,1,371.5,702a60.66,60.66,0,0,1-20-3.31C337.79,710.16,318,717.39,296,717.39c-22.67,0-43-7.65-56.73-19.73-10.6,11.33-28,18.73-47.72,18.73-16.81,0-32-5.39-42.64-14-15.79,11.82-37.46,19.1-61.36,19.1C39.18,721.47,0,691.7,0,655c0-25.11,18.31-47,45.34-58.28a59.27,59.27,0,0,1-6-25.89c0-30,23.05-55.79,55.93-66.86a43.32,43.32,0,0,1-.49-6.47c0-29.87,31-54.1,69.18-54.1a86.6,86.6,0,0,1,24.23,3.41,18.51,18.51,0,0,1-2.79-9.7c0-12.5,13-22.64,29-22.64,0.6,0,1.19,0,1.79,0a22.61,22.61,0,0,1-2.85-10.93c0-15.41,16-27.89,35.65-27.89a45,45,0,0,1,5.49.33,27.54,27.54,0,0,1-3.61-13.54c0-18.76,19.45-34,43.44-34s43.44,15.21,43.44,34A27.11,27.11,0,0,1,335.54,373c32,1.52,57.39,22.3,57.39,47.72a36.75,36.75,0,0,1-.62,6.74l1.16,0c13.32,0,24.13,8.45,24.13,18.88a15,15,0,0,1-.56,4.07,101,101,0,0,1,30-4.5c44.7,0,80.91,28.31,81,63.24,2.64-.22,5.33-0.34,8-0.34,35.45,0,65.15,19.38,72.68,45.33,23.12,0.77,41.54,15.68,41.54,33.94a27,27,0,0,1-1.65,9.31C683,600.43,709.61,622.6,709.61,649.49Z" transform="translate(0)"/><path class="cls-1" d="M451.92,147.56c18.25,8.23,41.57,8.14,61.91,4.4,25.41,19.25,59.84,25,92,22.08a199.51,199.51,0,0,0,58.64-14c9-3.72,17.37-8.62,21.46-16.72a57.94,57.94,0,0,0,17.67,0c14.52-2.4,30.69-10.89,34.65-26.56a38,38,0,0,0,.58-16.5c-4.16-22.23-27.73-38.89-50.36-39a26.06,26.06,0,0,0,.06-2.92c-0.32-8.43-7.59-14.94-14.63-18.12a34.89,34.89,0,0,0-15.24-2.55C657.63,7,605.85-2.63,581,.59A84.28,84.28,0,0,0,521.37,37a58.3,58.3,0,0,0-31.76-6.73c-32.73,2-65.66,28.28-70.32,61.86C416,115.93,430.78,138,451.92,147.56Z" transform="translate(0)"/><path class="cls-1" d="M922.32,187.43c-0.53,16.5-20.1,23.33-34,21.73a44.25,44.25,0,0,1-18.59-6.44,16,16,0,0,1-8.08,8.8,18.71,18.71,0,0,1-19.26-2.24,22.45,22.45,0,0,1-3.24,1.28c-9.58,2.92-22.1,2.64-30.3-3.8a21.11,21.11,0,0,1-6.71-8.82c-5.4-13.39,4-30.8,18.47-34.12a10.54,10.54,0,0,1-1.44-7.11c1.11-8.63,11.62-17,20.61-15.46,1-21.15,30.82-27.7,47-15.31,8.72,6.71,15.11,20.43,10.8,31.34-0.19.48-.4,1-0.63,1.43,1,0.09,1.93.21,2.83,0.39a30.69,30.69,0,0,1,3,.76C915,163.48,922.75,174.13,922.32,187.43Z" transform="translate(0)"/><path class="cls-1" d="M1661.41,191.67c-17.88,33.85-58.64,35.11-91.43,22.9-15.71,12.35-37.64,18.18-56.43,17.13-18.49-1-36.45-4.15-51.4-12.44a65.88,65.88,0,0,1-18.65-15.2c-20.75,11.94-45.21,17.68-69.22,17.43-16.24-.17-34.62-2.93-47.41-13.91-6.68-5.74-13.1-15.66-13.61-25.16-6.2-2.65-11.27-6.63-12.54-14a28.24,28.24,0,0,1-.37-4.58,25.3,25.3,0,0,1,5.28-16c7.69-9.55,21.82-13.13,32.31-8.18-1.44-8.58,4.24-16.88,13.81-20,5.43-1.74,11.73-2.57,17,.12a20.06,20.06,0,0,1,3.06,2c13-25.45,41.63-41,70.83-42.33,22-1,43.78,5.82,60.44,18.85A18.12,18.12,0,0,1,1517,96.51a22.85,22.85,0,0,1,13.27,10c14.49-10.46,36.91-7.78,48.25,7.12,0.11,0.15.25,0.29,0.36,0.44a29.68,29.68,0,0,1,5.24,14.66,22.8,22.8,0,0,1,5.42-3.17,20,20,0,0,1,13.59-.79c6.92,2.07,12.13,8.47,13.39,15.32,11.3-4.72,23.87-4.81,34.54,4.19C1665.65,156.68,1670.52,174.41,1661.41,191.67Z" transform="translate(0)"/><path class="cls-1" d="M1925.45,169.82c-11.67,5.21-26.58,5.15-39.58,2.78-16.24,12.18-38.26,15.79-58.8,14a128.65,128.65,0,0,1-37.49-8.86c-5.77-2.36-11.1-5.46-13.72-10.58a37.42,37.42,0,0,1-11.3,0c-9.29-1.52-19.62-6.89-22.15-16.81a23.83,23.83,0,0,1-.37-10.44c2.66-14.07,17.73-24.61,32.2-24.69a16.31,16.31,0,0,1,0-1.85c0.21-5.33,4.85-9.45,9.35-11.46a22.51,22.51,0,0,1,9.74-1.61c0.65-19.37,33.75-25.49,49.65-23.45a54,54,0,0,1,38.11,23,37.59,37.59,0,0,1,20.31-4.26c20.93,1.29,42,17.9,45,39.14C1948.42,149.8,1939,163.78,1925.45,169.82Z" transform="translate(0)"/></svg>